<?xml version="1.0" encoding="iso-8859-1"?>
<!-- Generator: Adobe Illustrator 19.0.0, SVG Export Plug-In . SVG Version: 6.00 Build 0)  -->
<svg version="1.1" id="Layer_1" xmlns="http://www.w3.org/2000/svg" xmlns:xlink="http://www.w3.org/1999/xlink" x="0px" y="0px"
	 viewBox="0 0 512 512" style="enable-background:new 0 0 512 512;" xml:space="preserve">
<circle style="fill:#73AFD6;" cx="243.769" cy="256.001" r="183.191"/>
<g>
	<path style="fill:#54CE8E;" d="M267.311,227.801l-40.467,16.713v53.658h51.117l23.429-35.221l41.533,9.961l21.299-22.662
		l62.672-1.22c-2.884-77.031-53.32-141.888-122.814-166.075c-16.151,24.9-44.222,71.451-44.222,71.451L267.311,227.801z"/>
	<path style="fill:#54CE8E;" d="M103.31,303.496c0-3.195,38.338-30.585,38.338-30.585l17.04-45.111l-45.753-99.929
		c-32.338,33.036-52.282,78.25-52.282,128.13c0,36.523,10.692,70.546,29.111,99.119l13.547-19.592
		C103.31,335.528,103.31,306.692,103.31,303.496z"/>
	<path style="fill:#54CE8E;" d="M232.365,335.528l-39.601,30.801l-5.65,63.898c17.864,5.813,36.928,8.968,56.731,8.968
		c14.171,0,27.966-1.611,41.213-4.656c-6.296-24.068-18.812-72.208-18.812-74.599C266.246,356.744,232.365,335.528,232.365,335.528z
		"/>
</g>
<g>
	<path style="fill:#174F79;" d="M243.768,499.769C109.355,499.769,0,390.415,0,256.001S109.355,12.232,243.768,12.232
		c5.43,0,9.832,4.402,9.832,9.832s-4.402,9.832-9.832,9.832c-123.57,0-224.104,100.533-224.104,224.105
		s100.533,224.104,224.104,224.104c123.572,0,224.105-100.533,224.105-224.104c0-5.43,4.402-9.832,9.832-9.832
		s9.832,4.402,9.832,9.832C487.537,390.415,378.182,499.769,243.768,499.769z"/>
	<path style="fill:#174F79;" d="M451.96,272.784c-2.596,0-5.186-1.021-7.118-3.049c-3.747-3.931-3.597-10.155,0.334-13.901
		l25.746-24.538c3.869-3.686,9.972-3.608,13.746,0.176l24.463,24.538c3.833,3.846,3.824,10.071-0.021,13.905
		c-3.846,3.833-10.072,3.824-13.905-0.021l-17.675-17.73l-18.787,17.906C456.838,271.883,454.397,272.784,451.96,272.784z"/>
	<path style="fill:#174F79;" d="M367.322,150.11c-2.516,0-5.033-0.96-6.952-2.88c-3.84-3.84-3.84-10.065,0-13.904l70.452-70.452
		c3.84-3.84,10.065-3.841,13.904,0c3.84,3.84,3.84,10.065,0,13.904l-70.452,70.452C372.355,149.15,369.839,150.11,367.322,150.11z"
		/>
	<path style="fill:#174F79;" d="M436.042,165.142c-4.508,0-8.574-3.12-9.59-7.704l-13.849-62.44l-62.439-13.849
		c-5.301-1.176-8.646-6.426-7.47-11.728c1.176-5.3,6.43-8.643,11.728-7.47l68.553,15.206c3.73,0.827,6.643,3.74,7.47,7.47
		l15.206,68.553c1.176,5.301-2.168,10.552-7.47,11.728C437.463,165.066,436.747,165.142,436.042,165.142z"/>
	<path style="fill:#174F79;" d="M373.009,176.592c-4.51,0-8.574-3.12-9.59-7.704l-4.485-20.22l-20.22-4.485
		c-5.301-1.176-8.646-6.426-7.47-11.728c1.176-5.301,6.424-8.644,11.728-7.47l26.334,5.842c3.73,0.827,6.643,3.74,7.47,7.47
		l5.842,26.334c1.175,5.301-2.168,10.552-7.47,11.728C374.43,176.516,373.713,176.592,373.009,176.592z"/>
	<path style="opacity:0.34;fill:#174F79;enable-background:new    ;" d="M426.893,249.029c-0.174-4.66-0.544-9.268-1.061-13.833
		c-8.626,77.774-65.939,140.863-140.779,158.1c0.001,0.005,0.003,0.01,0.004,0.016c-2.862,0.658-5.752,1.235-8.663,1.757
		c-0.084,0.016-0.169,0.031-0.253,0.047c-1.248,0.222-2.501,0.426-3.758,0.623c-0.359,0.056-0.718,0.115-1.079,0.169
		c-1.123,0.169-2.252,0.325-3.382,0.473c-0.503,0.067-1.007,0.131-1.51,0.194c-1.046,0.128-2.094,0.249-3.145,0.359
		c-0.603,0.064-1.207,0.123-1.812,0.181c-0.983,0.094-1.966,0.184-2.954,0.262c-0.7,0.055-1.403,0.102-2.105,0.149
		c-0.911,0.062-1.822,0.125-2.739,0.173c-0.842,0.045-1.687,0.075-2.533,0.108c-0.79,0.031-1.578,0.069-2.371,0.09
		c-1.42,0.038-2.846,0.055-4.274,0.06c-0.212,0.001-0.423,0.009-0.636,0.009c-0.01,0-0.02,0-0.03,0c-0.016,0-0.031,0-0.047,0
		c-2.243,0-4.473-0.055-6.698-0.135c-0.378-0.013-0.755-0.028-1.131-0.043c-90.644-3.812-164.244-73.482-174.204-162.402
		c-0.758,6.767-1.16,13.642-1.16,20.611c0,98.551,77.823,178.913,175.364,183.015c0.376,0.016,0.754,0.029,1.131,0.043
		c2.223,0.08,4.453,0.135,6.698,0.135c0.016,0,0.031,0,0.047,0c0.01,0,0.02,0,0.03,0c0.212,0,0.423-0.008,0.636-0.009
		c1.428-0.005,2.854-0.022,4.274-0.06c0.793-0.021,1.581-0.059,2.372-0.09c0.844-0.033,1.69-0.063,2.533-0.107
		c0.915-0.048,1.826-0.111,2.739-0.173c0.703-0.047,1.405-0.094,2.105-0.149c0.987-0.079,1.97-0.168,2.954-0.262
		c0.604-0.058,1.209-0.117,1.812-0.181c1.051-0.111,2.099-0.231,3.145-0.359c0.505-0.062,1.008-0.127,1.51-0.194
		c1.13-0.148,2.259-0.304,3.382-0.473c0.36-0.054,0.718-0.113,1.079-0.169c1.256-0.197,2.51-0.401,3.758-0.623
		c0.084-0.016,0.169-0.031,0.253-0.047c2.91-0.522,5.802-1.1,8.663-1.757c-0.001-0.005-0.003-0.01-0.004-0.016
		C366.344,415.796,426.959,342.978,426.959,256c0-2.335-0.059-4.656-0.146-6.97L426.893,249.029z"/>
</g>
<g>
</g>
<g>
</g>
<g>
</g>
<g>
</g>
<g>
</g>
<g>
</g>
<g>
</g>
<g>
</g>
<g>
</g>
<g>
</g>
<g>
</g>
<g>
</g>
<g>
</g>
<g>
</g>
<g>
</g>
</svg>
